<svg xmlns="http://www.w3.org/2000/svg" class="diagram-root" style="background: #f5f6f6" xmlns:xlink="http://www.w3.org/1999/xlink"><style>.diagram-root { font-family: "Helvetica Neue", sans-serif; font-size: 12px; } .t { overflow: visible; } .t-bg { y: 40; fill: #fff;   } .th { fill: #005aa0;   } .tht { fill: #fff; font-size: 14px;  } .tf { fill: #323c46; overflow: visible; } .tf.pk { fill: #005aa0; font-weight: bold; } .tf.fk { font-weight: bold; } .ty { fill: #adb1b5; font-weight: normal; text-anchor: end; } .r { fill: transparent; stroke: #c3c3c3; stroke-width: 1; } .l { stroke: 1; } .i { fill: #c2c7ce; stroke: #c2c7ce; } .i.ix { fill: #afb3b6; stroke: #000; } .fa { fill: transparent; overflow: visible; } .fa .bg.hover { fill: #f7f7f7; } .c { cy: 12; r: 4; stroke: #d2d2dc; fill: #d2d2dc; } .hr { fill: transparent; stroke: #323c46; stroke-opacity: 0.035; stroke-width: 13; } .dc { stroke: #fa5a3c; fill: #fa5a3c; } .x { stroke: white; stroke-width: 1; } .hl .th { fill: #1b9bff; } .hl .tht {  } .fhl .bg { fill: #e7f4ff; } .fhls .bg {  } .r.hl { stroke: #1b9bff; } .dim { opacity: 0.25; }</style><g class="drawing-wrapper" transform="translate(-57.124 161.117) scale(1)"><g class="rs"><path class="r" id="h3572062790" d="M 165.89 147 m -1 0 a 1 1 0 1 0 2 0 a 1 1 0 1 0 -2 0 M 165.89 147 m -0.5 0 a 0.5 0.5 0 1 0 1 0 a 0.5 0.5 0 1 0 -1 0 M 165.89 147 L 165.89 147 L 153.89 147 M 165.89 153 m -1 0 a 1 1 0 1 0 2 0 a 1 1 0 1 0 -2 0 M 165.89 153 m -0.5 0 a 0.5 0.5 0 1 0 1 0 a 0.5 0.5 0 1 0 -1 0 M 165.89 153 L 165.89 153 L 158.89 147 L 165.89 141 M 165.89 141 m -1 0 a 1 1 0 1 0 2 0 a 1 1 0 1 0 -2 0 M 165.89 141 m -0.5 0 a 0.5 0.5 0 1 0 1 0 a 0.5 0.5 0 1 0 -1 0 M 153.89 147 C 103.89 147 99.39 303.14 161.39 303.14 M 173.39 303.14 m -1 0 a 1 1 0 1 0 2 0 a 1 1 0 1 0 -2 0 M 173.39 303.14 m -0.5 0 a 0.5 0.5 0 1 0 1 0 a 0.5 0.5 0 1 0 -1 0 M 173.39 303.14 L 173.39 303.14 L 161.39 303.14 M 167.39 309.14 L 167.39 309.14 L 167.39 297.14"/><path class="r" id="h2410843218" d="M 551.31 156.82 m -1 0 a 1 1 0 1 0 2 0 a 1 1 0 1 0 -2 0 M 551.31 156.82 m -0.5 0 a 0.5 0.5 0 1 0 1 0 a 0.5 0.5 0 1 0 -1 0 M 551.31 156.82 L 551.31 156.82 L 563.31 156.82 M 551.31 162.82 m -1 0 a 1 1 0 1 0 2 0 a 1 1 0 1 0 -2 0 M 551.31 162.82 m -0.5 0 a 0.5 0.5 0 1 0 1 0 a 0.5 0.5 0 1 0 -1 0 M 551.31 162.82 L 551.31 162.82 L 558.31 156.82 L 551.31 150.82 M 551.31 150.82 m -1 0 a 1 1 0 1 0 2 0 a 1 1 0 1 0 -2 0 M 551.31 150.82 m -0.5 0 a 0.5 0.5 0 1 0 1 0 a 0.5 0.5 0 1 0 -1 0 M 563.31 156.82 Q 584.36 156.82 605.41 156.91 T 647.5 157 M 659.5 157 m -1 0 a 1 1 0 1 0 2 0 a 1 1 0 1 0 -2 0 M 659.5 157 m -0.5 0 a 0.5 0.5 0 1 0 1 0 a 0.5 0.5 0 1 0 -1 0 M 659.5 157 L 659.5 157 L 647.5 157 M 653.5 163 L 653.5 163 L 653.5 151"/><path class="r" id="h3177548053" d="M 540.39 -76.43 m -1 0 a 1 1 0 1 0 2 0 a 1 1 0 1 0 -2 0 M 540.39 -76.43 m -0.5 0 a 0.5 0.5 0 1 0 1 0 a 0.5 0.5 0 1 0 -1 0 M 540.39 -76.43 L 540.39 -76.43 L 552.39 -76.43 M 540.39 -70.43 m -1 0 a 1 1 0 1 0 2 0 a 1 1 0 1 0 -2 0 M 540.39 -70.43 m -0.5 0 a 0.5 0.5 0 1 0 1 0 a 0.5 0.5 0 1 0 -1 0 M 540.39 -70.43 L 540.39 -70.43 L 547.39 -76.43 L 540.39 -82.43 M 540.39 -82.43 m -1 0 a 1 1 0 1 0 2 0 a 1 1 0 1 0 -2 0 M 540.39 -82.43 m -0.5 0 a 0.5 0.5 0 1 0 1 0 a 0.5 0.5 0 1 0 -1 0 M 552.39 -76.43 C 619.862 -76.43 613.31 131.82 563.31 131.82 M 551.31 131.82 m -1 0 a 1 1 0 1 0 2 0 a 1 1 0 1 0 -2 0 M 551.31 131.82 m -0.5 0 a 0.5 0.5 0 1 0 1 0 a 0.5 0.5 0 1 0 -1 0 M 551.31 131.82 L 551.31 131.82 L 563.31 131.82 M 557.31 137.82 L 557.31 137.82 L 557.31 125.82"/><path class="r" id="h1139284389" d="M 302.75 278.14 m -1 0 a 1 1 0 1 0 2 0 a 1 1 0 1 0 -2 0 M 302.75 278.14 m -0.5 0 a 0.5 0.5 0 1 0 1 0 a 0.5 0.5 0 1 0 -1 0 M 302.75 278.14 L 302.75 278.14 L 314.75 278.14 M 302.75 284.14 m -1 0 a 1 1 0 1 0 2 0 a 1 1 0 1 0 -2 0 M 302.75 284.14 m -0.5 0 a 0.5 0.5 0 1 0 1 0 a 0.5 0.5 0 1 0 -1 0 M 302.75 284.14 L 302.75 284.14 L 309.75 278.14 L 302.75 272.14 M 302.75 272.14 m -1 0 a 1 1 0 1 0 2 0 a 1 1 0 1 0 -2 0 M 302.75 272.14 m -0.5 0 a 0.5 0.5 0 1 0 1 0 a 0.5 0.5 0 1 0 -1 0 M 314.75 278.14 Q 335.39 278.14 356.02 204.98 T 397.29 131.82 M 409.29 131.82 m -1 0 a 1 1 0 1 0 2 0 a 1 1 0 1 0 -2 0 M 409.29 131.82 m -0.5 0 a 0.5 0.5 0 1 0 1 0 a 0.5 0.5 0 1 0 -1 0 M 409.29 131.82 L 409.29 131.82 L 397.29 131.82 M 403.29 137.82 L 403.29 137.82 L 403.29 125.82"/><path class="r" id="h1397587031" d="M 163.57 -79.07 m -1 0 a 1 1 0 1 0 2 0 a 1 1 0 1 0 -2 0 M 163.57 -79.07 m -0.5 0 a 0.5 0.5 0 1 0 1 0 a 0.5 0.5 0 1 0 -1 0 M 163.57 -79.07 L 163.57 -79.07 L 151.57 -79.07 M 163.57 -73.07 m -1 0 a 1 1 0 1 0 2 0 a 1 1 0 1 0 -2 0 M 163.57 -73.07 m -0.5 0 a 0.5 0.5 0 1 0 1 0 a 0.5 0.5 0 1 0 -1 0 M 163.57 -73.07 L 163.57 -73.07 L 156.57 -79.07 L 163.57 -85.07 M 163.57 -85.07 m -1 0 a 1 1 0 1 0 2 0 a 1 1 0 1 0 -2 0 M 163.57 -85.07 m -0.5 0 a 0.5 0.5 0 1 0 1 0 a 0.5 0.5 0 1 0 -1 0 M 151.57 -79.07 C 101.57 -79.07 100.178 147 153.89 147 M 165.89 147 m -1 0 a 1 1 0 1 0 2 0 a 1 1 0 1 0 -2 0 M 165.89 147 m -0.5 0 a 0.5 0.5 0 1 0 1 0 a 0.5 0.5 0 1 0 -1 0 M 165.89 147 L 165.89 147 L 153.89 147 M 159.89 153 L 159.89 153 L 159.89 141"/><path class="r" id="h2286254435" d="M 292.93 -54.07 m -1 0 a 1 1 0 1 0 2 0 a 1 1 0 1 0 -2 0 M 292.93 -54.07 m -0.5 0 a 0.5 0.5 0 1 0 1 0 a 0.5 0.5 0 1 0 -1 0 M 292.93 -54.07 L 292.93 -54.07 L 304.93 -54.07 M 292.93 -48.07 m -1 0 a 1 1 0 1 0 2 0 a 1 1 0 1 0 -2 0 M 292.93 -48.07 m -0.5 0 a 0.5 0.5 0 1 0 1 0 a 0.5 0.5 0 1 0 -1 0 M 292.93 -48.07 L 292.93 -48.07 L 299.93 -54.07 L 292.93 -60.07 M 292.93 -60.07 m -1 0 a 1 1 0 1 0 2 0 a 1 1 0 1 0 -2 0 M 292.93 -60.07 m -0.5 0 a 0.5 0.5 0 1 0 1 0 a 0.5 0.5 0 1 0 -1 0 M 304.93 -54.07 Q 328.02 -54.07 351.11 38.88 T 397.29 131.82 M 409.29 131.82 m -1 0 a 1 1 0 1 0 2 0 a 1 1 0 1 0 -2 0 M 409.29 131.82 m -0.5 0 a 0.5 0.5 0 1 0 1 0 a 0.5 0.5 0 1 0 -1 0 M 409.29 131.82 L 409.29 131.82 L 397.29 131.82 M 403.29 137.82 L 403.29 137.82 L 403.29 125.82"/></g><g class="hrs"/><g class="ts"><svg class="t" id="h475896179" x="165.89" y="90" width="149.36" height="100"><rect class="th" width="149.36" height="40"/><text class="tht" x="13" y="25">departments</text><rect class="t-bg" y="40" width="149.36" height="60"/><text class="tf pk" x="13" y="61">dept_no<tspan class="ty" x="136.36">varchar</tspan></text><path class="i pk" transform="translate(76.35 48) scale(0.65)" d="M 7 14 A 2 2 0 0 1 5 12 A 2 2 0 0 1 7 10 A 2 2 0 0 1 9 12 A 2 2 0 0 1 7 14 M 12.65 10 C 11.83 7.67 9.61 6 7 6 A 6 6 0 0 0 1 12 A 6 6 0 0 0 7 18 C 9.61 18 11.83 16.33 12.65 14 H 17 V 18 H 21 V 14 H 23 V 10 H 12.65 Z"/><text class="tf" x="13" y="86">dept_name<tspan class="ty" x="136.36">varchar</tspan></text></svg><svg class="t" id="h1639608377" x="409.29" y="74.82" width="142.02" height="225"><rect class="th" width="142.02" height="40"/><text class="tht" x="13" y="25">employees</text><rect class="t-bg" y="40" width="142.02" height="185"/><text class="tf pk" x="13" y="61">emp_no<tspan class="ty" x="129.02">int</tspan></text><path class="i pk" transform="translate(96.35 48) scale(0.65)" d="M 7 14 A 2 2 0 0 1 5 12 A 2 2 0 0 1 7 10 A 2 2 0 0 1 9 12 A 2 2 0 0 1 7 14 M 12.65 10 C 11.83 7.67 9.61 6 7 6 A 6 6 0 0 0 1 12 A 6 6 0 0 0 7 18 C 9.61 18 11.83 16.33 12.65 14 H 17 V 18 H 21 V 14 H 23 V 10 H 12.65 Z"/><text class="tf fk" x="13" y="86">emp_title_id<tspan class="ty" x="129.02">int</tspan></text><text class="tf" x="13" y="111">birth_date<tspan class="ty" x="129.02">date</tspan></text><text class="tf" x="13" y="136">first_name<tspan class="ty" x="129.02">varchar</tspan></text><text class="tf" x="13" y="161">last_name<tspan class="ty" x="129.02">varchar</tspan></text><text class="tf" x="13" y="186">sex<tspan class="ty" x="129.02">varchar</tspan></text><text class="tf" x="13" y="211">hire_date<tspan class="ty" x="129.02">date</tspan></text></svg><svg class="t" id="h2472833127" x="439.71" y="-133.43" width="100.68" height="100"><rect class="th" width="100.68" height="40"/><text class="tht" x="13" y="25">salaries</text><rect class="t-bg" y="40" width="100.68" height="60"/><text class="tf fk" x="13" y="61">emp_no</text><text class="tf" x="13" y="86">salary<tspan class="ty" x="87.68">float</tspan></text></svg><svg class="t" id="h1090417462" x="173.39" y="221.14" width="129.36" height="100"><rect class="th" width="129.36" height="40"/><text class="tht" x="13" y="25">dept_emp</text><rect class="t-bg" y="40" width="129.36" height="60"/><text class="tf fk" x="13" y="61">emp_no<tspan class="ty" x="116.36">int</tspan></text><text class="tf fk" x="13" y="86">dept_no<tspan class="ty" x="116.36">varchar</tspan></text></svg><svg class="t" id="h1676682957" x="163.57" y="-136.07" width="129.36" height="100"><rect class="th" width="129.36" height="40"/><text class="tht" x="13" y="25">dept_manager</text><rect class="t-bg" y="40" width="129.36" height="60"/><text class="tf fk" x="13" y="61">dept_no<tspan class="ty" x="116.36">varchar</tspan></text><text class="tf fk" x="13" y="86">emp_no<tspan class="ty" x="116.36">vachar</tspan></text></svg><svg class="t" id="h1006881043" x="659.5" y="100" width="113.35" height="100"><rect class="th" width="113.35" height="40"/><text class="tht" x="13" y="25">title</text><rect class="t-bg" y="40" width="113.35" height="60"/><text class="tf pk" x="13" y="61">title_id<tspan class="ty" x="100.35">int</tspan></text><path class="i pk" transform="translate(67.68 48) scale(0.65)" d="M 7 14 A 2 2 0 0 1 5 12 A 2 2 0 0 1 7 10 A 2 2 0 0 1 9 12 A 2 2 0 0 1 7 14 M 12.65 10 C 11.83 7.67 9.61 6 7 6 A 6 6 0 0 0 1 12 A 6 6 0 0 0 7 18 C 9.61 18 11.83 16.33 12.65 14 H 17 V 18 H 21 V 14 H 23 V 10 H 12.65 Z"/><text class="tf" x="13" y="86">title<tspan class="ty" x="100.35">varchar</tspan></text></svg></g></g></svg>